<?xml version="1.0" encoding="utf-8"?>
<!-- Generator: Adobe Illustrator 26.2.1, SVG Export Plug-In . SVG Version: 6.00 Build 0)  -->
<svg version="1.1" id="Camada_1" xmlns="http://www.w3.org/2000/svg" xmlns:xlink="http://www.w3.org/1999/xlink" x="0px" y="0px"
	 viewBox="0 0 425.2 213.37" style="enable-background:new 0 0 425.2 213.37;" xml:space="preserve">
<style type="text/css">
	.st0{fill:#8C9CA6;}
	.st1{fill:#006494;}
	.st2{fill:#007DB7;}
	.st3{fill:none;}
</style>
<g>
	<g id="XMLID_4237_">
		<g id="XMLID_4238_">
			<path id="XMLID_4253_" class="st0" d="M320.06,206.45h5.6l0.08,6.45h-5.6L320.06,206.45z"/>
			<path id="XMLID_4251_" class="st0" d="M340.23,210.46c-0.73,0.88-1.7,1.58-2.94,2.1c-1.23,0.52-2.5,0.78-3.79,0.78
				c-1.45,0-2.64-0.34-3.56-1.03c-0.92-0.69-1.63-1.56-2.14-2.62c-0.5-1.06-0.83-2.23-0.99-3.5c-0.15-1.27-0.19-2.49-0.12-3.65
				c0.26-3.14,1.06-5.49,2.41-7.06c1.35-1.57,3.3-2.35,5.87-2.35c0.42,0,0.87,0.02,1.36,0.06c0.49,0.04,0.98,0.1,1.46,0.18
				c0.48,0.08,0.94,0.18,1.38,0.29c0.44,0.12,0.83,0.25,1.17,0.41l-0.19,4.39c-0.21-0.1-0.5-0.21-0.86-0.31
				c-0.37-0.1-0.76-0.2-1.17-0.27c-0.42-0.08-0.84-0.14-1.26-0.19c-0.43-0.05-0.81-0.08-1.15-0.08c-1.32,0-2.31,0.54-2.97,1.61
				c-0.66,1.08-1.07,2.58-1.22,4.53c-0.06,0.47-0.06,0.99,0,1.56c0.05,0.57,0.15,1.1,0.31,1.59c0.16,0.49,0.39,0.9,0.7,1.22
				c0.31,0.32,0.73,0.49,1.24,0.49c0.75,0,1.54-0.2,2.35-0.6c0.82-0.4,1.41-0.91,1.77-1.54L340.23,210.46z"/>
			<path id="XMLID_4248_" class="st0" d="M349.14,193.04c1.68,0,3.09,0.28,4.22,0.84c1.13,0.56,2.03,1.3,2.7,2.23
				c0.67,0.93,1.15,2.03,1.42,3.28c0.27,1.26,0.41,2.59,0.41,3.99c0,1.4-0.14,2.71-0.41,3.93c-0.27,1.22-0.75,2.27-1.42,3.17
				c-0.67,0.89-1.57,1.6-2.7,2.12c-1.13,0.52-2.54,0.78-4.22,0.78c-1.69,0-3.09-0.29-4.22-0.85c-1.13-0.57-2.03-1.33-2.7-2.28
				c-0.67-0.95-1.15-2.05-1.44-3.32c-0.28-1.27-0.43-2.6-0.43-4c0-1.4,0.14-2.7,0.43-3.91c0.29-1.21,0.77-2.25,1.44-3.13
				c0.67-0.88,1.57-1.57,2.7-2.08C346.05,193.29,347.45,193.04,349.14,193.04z M349.14,208.86c0.73,0,1.31-0.15,1.75-0.45
				c0.44-0.3,0.79-0.7,1.05-1.21c0.26-0.5,0.43-1.1,0.52-1.79c0.09-0.69,0.14-1.43,0.14-2.24c0-0.8-0.05-1.55-0.14-2.23
				c-0.09-0.69-0.27-1.28-0.52-1.79c-0.26-0.5-0.61-0.9-1.05-1.19c-0.44-0.28-1.02-0.43-1.75-0.43c-0.73,0-1.31,0.14-1.77,0.43
				c-0.45,0.29-0.8,0.68-1.05,1.19c-0.25,0.51-0.42,1.1-0.51,1.79c-0.09,0.69-0.14,1.43-0.14,2.23c0,0.81,0.04,1.55,0.14,2.24
				c0.09,0.69,0.26,1.28,0.51,1.79c0.25,0.51,0.6,0.91,1.05,1.21C347.82,208.71,348.41,208.86,349.14,208.86z"/>
			<path id="XMLID_4246_" class="st0" d="M359.29,212.91l-0.08-19.4h5.17l0.08,1.91c0.18-0.23,0.44-0.49,0.78-0.76
				c0.33-0.27,0.72-0.53,1.15-0.76c0.43-0.23,0.88-0.43,1.36-0.6c0.48-0.17,0.95-0.25,1.42-0.25c0.91,0,1.81,0.23,2.72,0.68
				c0.91,0.45,1.58,1.06,2.02,1.81c0.34-0.23,0.77-0.5,1.3-0.8c0.53-0.3,1.11-0.57,1.73-0.82c0.62-0.25,1.25-0.45,1.88-0.62
				c0.64-0.17,1.21-0.25,1.73-0.25c2.13,0,3.7,0.84,4.73,2.51c1.02,1.67,1.53,4.08,1.53,7.21l0.08,10.15h-5.21l-0.08-9.95
				c0-0.73-0.01-1.41-0.02-2.04c-0.02-0.64-0.08-1.19-0.22-1.65c-0.13-0.47-0.33-0.83-0.62-1.09c-0.29-0.26-0.71-0.39-1.29-0.39
				c-0.78,0-1.44,0.18-2,0.53s-1.17,0.76-1.85,1.22v1.09c0,0.31,0.01,0.67,0.02,1.07c0.02,0.4,0.02,0.78,0.02,1.15l0.08,10.07h-5.21
				l-0.08-9.99c0-1.56-0.18-2.8-0.55-3.73c-0.36-0.93-1.1-1.4-2.22-1.4c-0.65,0-1.23,0.23-1.75,0.7c-0.52,0.47-1,0.97-1.44,1.52
				v12.91H359.29z"/>
			<path id="XMLID_4244_" class="st0" d="M388.06,206.45h5.6l0.08,6.45h-5.6L388.06,206.45z"/>
			<path id="XMLID_4241_" class="st0" d="M400.93,194.83c0.67-0.49,1.41-0.9,2.2-1.23c0.79-0.32,1.56-0.48,2.31-0.48
				c1.45,0,2.63,0.34,3.56,1.03c0.92,0.69,1.63,1.56,2.14,2.63c0.51,1.06,0.83,2.23,0.99,3.5c0.16,1.27,0.19,2.49,0.12,3.65
				c-0.26,3.14-1.06,5.49-2.41,7.06c-1.35,1.57-3.3,2.35-5.87,2.35c-0.37,0-1-0.03-1.91-0.08c-0.91-0.05-1.83-0.1-2.76-0.15
				c-1.09-0.08-2.28-0.16-3.57-0.23v-27.18h5.21V194.83z M405.16,197.86c-0.34,0-0.71,0.05-1.11,0.16c-0.41,0.1-0.8,0.25-1.19,0.45
				c-0.39,0.2-0.75,0.42-1.09,0.66c-0.34,0.25-0.62,0.5-0.85,0.76l0.08,8.83c0.78,0.15,1.53,0.23,2.25,0.23
				c1.32,0,2.31-0.55,2.96-1.65c0.65-1.1,1.05-2.63,1.21-4.57c0.03-0.47,0.02-0.98-0.02-1.55c-0.04-0.57-0.14-1.1-0.29-1.59
				c-0.15-0.49-0.39-0.9-0.72-1.23C406.06,198.02,405.66,197.86,405.16,197.86z"/>
			<path id="XMLID_4239_" class="st0" d="M413.72,193.5h5.21l-0.08,2.33c0.24-0.23,0.5-0.49,0.8-0.76c0.3-0.27,0.65-0.53,1.05-0.78
				c0.4-0.25,0.88-0.48,1.44-0.7c0.56-0.22,1.22-0.41,2-0.56v5.6c-0.91,0.16-1.63,0.31-2.18,0.45c-0.54,0.14-0.99,0.28-1.34,0.43
				c-0.35,0.14-0.66,0.31-0.91,0.49c-0.26,0.18-0.54,0.39-0.86,0.62l0.16,12.29h-5.21L413.72,193.5z"/>
		</g>
	</g>
	<g id="XMLID_4185_">
		<path id="XMLID_4235_" class="st1" d="M66.35,18.45c0.32-5.26,1.74-9.43,4.25-12.5c2.51-3.07,6.47-4.65,11.9-4.73h9.95
			l15.66,61.54l12.26-47.58c1.13-4.78,3.04-8.27,5.71-10.5c2.67-2.22,6.03-3.38,10.08-3.46h14.93l0.24,83.75h-16.51l-0.24-63.85
			c-1.46,0-2.47,1.54-3.04,4.61l-11.41,44.18c-0.89,3.64-2.08,6.43-3.58,8.38c-1.5,1.94-3.3,2.95-5.4,3.03h-10.68l-15.78-60.2
			c-0.65,0.08-1.07,0.51-1.27,1.27c-0.2,0.77-0.39,1.76-0.55,2.97l0.24,59.6H66.59L66.35,18.45z"/>
		<path id="XMLID_4232_" class="st1" d="M158.85,1.09h16.26v16.39h-16.26V1.09z M158.85,24.4h16.26l0.24,60.57h-16.27L158.85,24.4z"
			/>
		<path id="XMLID_4227_" class="st1" d="M182.75,84.97l-0.24-60.57h16.26l0.12,6.19c0.56-0.73,1.44-1.54,2.61-2.43
			c1.17-0.89,2.47-1.72,3.88-2.49c1.41-0.77,2.91-1.41,4.49-1.94c1.58-0.52,3.1-0.79,4.55-0.79c3.48,0,6.47,0.71,8.98,2.12
			c2.51,1.42,4.53,3.46,6.07,6.13c1.53,2.67,2.67,5.87,3.4,9.59c0.73,3.72,1.09,7.89,1.09,12.5l0.24,31.68h-16.26l-0.24-31.68
			c0-2.02-0.04-3.96-0.12-5.83c-0.08-1.86-0.32-3.52-0.73-4.98c-0.4-1.46-1.05-2.61-1.94-3.46c-0.89-0.85-2.19-1.28-3.88-1.28
			c-2.02,0-4.13,0.61-6.31,1.82c-2.18,1.22-4.17,2.87-5.95,4.98l0.24,40.42H182.75z"/>
		<path id="XMLID_4196_" class="st1" d="M241.38,84.97L241.14,0h16.26v27.8c1.94-1.38,4.13-2.53,6.55-3.46
			c2.43-0.93,5.06-1.4,7.89-1.4c3.96,0,7.26,0.71,9.89,2.12c2.63,1.42,4.75,3.44,6.37,6.07c1.62,2.63,2.77,5.81,3.46,9.53
			c0.69,3.72,1.03,7.89,1.03,12.5l0.24,31.8h-16.26l-0.24-31.92c0-1.94-0.1-3.84-0.3-5.7c-0.2-1.86-0.59-3.52-1.16-4.98
			c-0.56-1.46-1.35-2.61-2.36-3.46c-1.01-0.85-2.37-1.28-4.07-1.28c-2.02,0-4.05,0.57-6.07,1.7c-2.02,1.13-3.72,2.31-5.1,3.52
			l0.37,42.12H241.38z"/>
		<path id="XMLID_4189_" class="st1" d="M345.77,67.61c0.16,1.54,0.79,2.73,1.88,3.58c1.09,0.85,2.53,1.44,4.31,1.76l-0.85,13.23
			c-4.21-0.16-7.71-0.75-10.5-1.76c-2.79-1.01-4.96-2.32-6.5-3.94c-0.73,0.57-1.72,1.2-2.97,1.88c-1.25,0.69-2.61,1.32-4.07,1.88
			c-1.46,0.57-3,1.05-4.61,1.46c-1.62,0.4-3.16,0.61-4.61,0.61c-4.53,0-8.23-1.07-11.11-3.22c-2.88-2.14-5.1-4.87-6.68-8.19
			c-1.58-3.32-2.61-6.96-3.1-10.92c-0.48-3.96-0.61-7.77-0.37-11.41c0.81-9.79,3.32-17.13,7.53-22.03
			c4.21-4.9,10.31-7.34,18.33-7.34c2.35,0,4.53,0.12,6.55,0.36c2.02,0.24,3.72,0.57,5.1,0.97l11.53-1.7L345.77,67.61z M318.58,71.25
			c2.35,0,4.73-0.59,7.16-1.76c2.43-1.17,4.21-2.73,5.34-4.67l-0.49-27.31c-0.73-0.16-1.7-0.26-2.91-0.3
			c-1.21-0.04-2.19-0.06-2.91-0.06c-4.13,0-7.22,1.68-9.28,5.04c-2.06,3.36-3.34,8.07-3.83,14.14c-0.16,1.46-0.18,3.06-0.06,4.79
			c0.12,1.74,0.44,3.36,0.97,4.85c0.52,1.5,1.25,2.75,2.19,3.76C315.69,70.75,316.96,71.25,318.58,71.25z"/>
	</g>
	<g id="XMLID_3905_">
		<g>
			<path id="XMLID_244_" class="st2" d="M29.74,94.86c3.48,0,6.86,0.42,10.14,1.28c3.28,0.85,6.17,2.18,8.68,4.01
				c2.51,1.82,4.51,4.11,6.01,6.86c1.5,2.75,2.24,6.03,2.24,9.83c0,2.75-0.16,5.08-0.48,6.98c-0.32,1.9-0.87,3.58-1.64,5.04
				c-0.77,1.46-1.74,2.71-2.91,3.76c-1.18,1.05-2.57,2.11-4.19,3.16c3.8,1.62,6.55,3.97,8.26,7.04c1.7,3.08,2.59,7.37,2.67,12.87
				c0,4.13-0.69,7.65-2.07,10.56c-1.38,2.91-3.26,5.28-5.64,7.1c-2.39,1.82-5.22,3.16-8.5,4c-3.28,0.85-6.82,1.28-10.62,1.28H0.24
				L0,94.86H29.74z M16.51,109.79v19.66h13.71c2.67,0,4.9-0.89,6.68-2.67c1.78-1.78,2.67-4.33,2.67-7.65c0-3.16-0.93-5.5-2.79-7.04
				c-1.86-1.54-4.09-2.31-6.68-2.31H16.51z M16.51,143.78v19.91h14.08c2.83,0,5.28-0.81,7.35-2.43c2.06-1.62,3.09-4.17,3.09-7.65
				c0-3.4-1.05-5.89-3.16-7.47c-2.11-1.58-4.53-2.37-7.28-2.37H16.51z"/>
			<path id="XMLID_241_" class="st2" d="M63,94.74h16.26v16.39H63V94.74z M63,118.05h16.26l0.24,60.57H63.24L63,118.05z"/>
			<path id="XMLID_238_" class="st2" d="M102.93,122.18c2.1-1.54,4.39-2.81,6.86-3.82c2.47-1.01,4.88-1.52,7.22-1.52
				c4.53,0,8.23,1.07,11.11,3.22c2.87,2.14,5.1,4.88,6.68,8.19c1.58,3.32,2.61,6.96,3.09,10.92c0.49,3.97,0.61,7.77,0.36,11.41
				c-0.81,9.79-3.32,17.14-7.52,22.03c-4.21,4.9-10.32,7.34-18.33,7.34c-1.13,0-3.11-0.08-5.95-0.24c-2.84-0.16-5.71-0.32-8.62-0.49
				c-3.4-0.24-7.12-0.48-11.17-0.73V93.65h16.27V122.18z M116.16,131.64c-1.05,0-2.21,0.16-3.46,0.49c-1.25,0.32-2.49,0.79-3.7,1.4
				c-1.21,0.61-2.35,1.29-3.4,2.06c-1.05,0.77-1.94,1.56-2.67,2.37l0.24,27.55c2.43,0.48,4.77,0.73,7.04,0.73
				c4.13,0,7.2-1.72,9.23-5.16c2.02-3.44,3.28-8.19,3.76-14.26c0.08-1.46,0.06-3.08-0.06-4.85c-0.12-1.78-0.42-3.44-0.91-4.98
				c-0.49-1.54-1.23-2.81-2.25-3.82C118.97,132.15,117.7,131.64,116.16,131.64z"/>
			<path id="XMLID_236_" class="st2" d="M142.87,93.65h16.26l0.24,84.97h-16.27L142.87,93.65z"/>
			<path id="XMLID_233_" class="st2" d="M165.93,94.74h16.26v16.39h-16.26V94.74z M165.93,118.05h16.26l0.24,60.57h-16.27
				L165.93,118.05z"/>
			<path id="XMLID_230_" class="st2" d="M213.02,116.59c5.26,0,9.65,0.87,13.17,2.61c3.52,1.74,6.33,4.07,8.44,6.98
				c2.1,2.91,3.58,6.33,4.43,10.26c0.85,3.93,1.27,8.07,1.27,12.44c0,4.37-0.42,8.46-1.27,12.26c-0.85,3.81-2.33,7.1-4.43,9.89
				c-2.11,2.79-4.92,5-8.44,6.62c-3.52,1.62-7.91,2.43-13.17,2.43c-5.26,0-9.65-0.89-13.17-2.67c-3.52-1.78-6.33-4.15-8.44-7.1
				c-2.11-2.95-3.6-6.41-4.49-10.38c-0.89-3.96-1.34-8.13-1.34-12.5c0-4.37,0.44-8.44,1.34-12.2c0.89-3.76,2.39-7.02,4.49-9.77
				c2.1-2.75,4.92-4.92,8.44-6.5C203.37,117.38,207.76,116.59,213.02,116.59z M213.02,165.99c2.26,0,4.08-0.46,5.46-1.39
				c1.37-0.93,2.47-2.18,3.28-3.76c0.81-1.58,1.35-3.44,1.64-5.58c0.28-2.14,0.43-4.47,0.43-6.98c0-2.51-0.14-4.83-0.43-6.98
				c-0.28-2.14-0.83-4.01-1.64-5.58c-0.81-1.58-1.9-2.81-3.28-3.7c-1.38-0.89-3.2-1.33-5.46-1.33c-2.27,0-4.11,0.45-5.52,1.33
				c-1.42,0.89-2.51,2.12-3.28,3.7c-0.77,1.58-1.29,3.44-1.58,5.58c-0.28,2.15-0.42,4.47-0.42,6.98c0,2.51,0.14,4.84,0.42,6.98
				c0.28,2.14,0.81,4.01,1.58,5.58c0.77,1.58,1.86,2.83,3.28,3.76C208.91,165.53,210.76,165.99,213.02,165.99z"/>
			<path id="XMLID_228_" class="st2" d="M260.96,132.37v23.79c0,6.15,1.7,9.23,5.1,9.23c0.89,0,1.82,0,2.8,0
				c0.97,0,1.9-0.04,2.79-0.12c0.97,0,1.98-0.04,3.04-0.12l0.73,13.11c-1.38,0.32-2.8,0.65-4.25,0.97
				c-1.22,0.24-2.51,0.44-3.88,0.61c-1.38,0.16-2.59,0.24-3.64,0.24c-6.8,0-11.65-1.8-14.57-5.4c-2.91-3.6-4.37-9.49-4.37-17.66
				v-24.64h-6.55v-14.2h6.55v-17.11h16.26v17.11h14.32v14.2H260.96z"/>
			<path id="XMLID_225_" class="st2" d="M321.78,172.79c-0.89,0.65-2.06,1.38-3.52,2.18c-1.46,0.81-3.16,1.58-5.1,2.31
				c-1.94,0.73-4.07,1.34-6.37,1.82c-2.31,0.48-4.67,0.73-7.1,0.73c-4.45,0-8.29-0.75-11.53-2.24c-3.24-1.5-5.89-3.6-7.95-6.31
				c-2.06-2.71-3.6-5.97-4.61-9.77c-1.01-3.8-1.52-8.05-1.52-12.74c0-5.34,0.75-10.01,2.24-14.02c1.5-4.01,3.5-7.34,6.01-10.01
				c2.51-2.67,5.42-4.65,8.74-5.95c3.32-1.29,6.76-1.94,10.32-1.94c3.56,0,6.71,0.51,9.47,1.52c2.75,1.01,5.08,2.39,6.98,4.13
				c1.9,1.74,3.34,3.82,4.31,6.25c0.97,2.43,1.46,5.1,1.46,8.01c0,4.37-1.22,7.95-3.64,10.74c-2.43,2.79-5.38,5-8.86,6.62
				c-3.48,1.62-7.16,2.79-11.05,3.52c-3.88,0.73-7.28,1.13-10.19,1.21c0,1.86,0.68,3.58,2.06,5.16c1.38,1.58,3.44,2.37,6.19,2.37
				c1.54,0,3.28-0.22,5.22-0.67c1.94-0.44,3.86-1.03,5.76-1.76c1.9-0.73,3.7-1.54,5.4-2.43c1.7-0.89,3.08-1.78,4.13-2.67
				L321.78,172.79z M301.87,130.55c-1.38,0-2.73,0.3-4.07,0.91c-1.33,0.61-2.57,1.52-3.7,2.73c-1.13,1.21-2.11,2.75-2.92,4.61
				c-0.81,1.86-1.38,4.05-1.7,6.55c2.1-0.24,4.31-0.5,6.62-0.79c2.31-0.28,4.43-0.75,6.37-1.4c1.94-0.65,3.54-1.5,4.79-2.55
				c1.25-1.05,1.88-2.47,1.88-4.25c0-1.7-0.59-3.1-1.76-4.19C306.22,131.1,304.38,130.55,301.87,130.55z"/>
			<path id="XMLID_223_" class="st2" d="M368.63,170.97c-2.27,2.75-5.32,4.94-9.16,6.55c-3.84,1.62-7.79,2.43-11.84,2.43
				c-4.53,0-8.23-1.07-11.11-3.22c-2.87-2.14-5.1-4.87-6.68-8.19c-1.58-3.32-2.61-6.96-3.09-10.92c-0.49-3.96-0.61-7.77-0.36-11.41
				c0.81-9.79,3.31-17.13,7.52-22.03c4.21-4.9,10.32-7.34,18.33-7.34c1.29,0,2.71,0.06,4.25,0.18c1.53,0.12,3.05,0.3,4.55,0.55
				c1.5,0.24,2.93,0.55,4.31,0.91c1.37,0.36,2.59,0.79,3.64,1.27l-0.6,13.72c-0.65-0.32-1.54-0.65-2.67-0.97
				c-1.14-0.32-2.35-0.61-3.64-0.85c-1.29-0.24-2.61-0.44-3.95-0.61c-1.33-0.16-2.53-0.24-3.58-0.24c-4.13,0-7.22,1.68-9.29,5.04
				c-2.06,3.36-3.34,8.07-3.82,14.14c-0.16,1.46-0.16,3.08,0,4.86c0.16,1.78,0.48,3.44,0.97,4.98c0.48,1.54,1.21,2.81,2.19,3.82
				c0.97,1.01,2.26,1.52,3.88,1.52c2.35,0,4.79-0.62,7.35-1.88c2.55-1.25,4.39-2.85,5.52-4.79L368.63,170.97z"/>
			<path id="XMLID_220_" class="st2" d="M419.01,161.26c0.16,1.54,0.79,2.73,1.88,3.58c1.09,0.85,2.53,1.44,4.31,1.76l-0.85,13.23
				c-4.21-0.16-7.71-0.75-10.5-1.76c-2.79-1.01-4.96-2.33-6.5-3.94c-0.73,0.57-1.72,1.2-2.97,1.88c-1.25,0.69-2.61,1.32-4.07,1.88
				c-1.46,0.57-2.99,1.05-4.61,1.46c-1.62,0.4-3.16,0.61-4.61,0.61c-4.53,0-8.23-1.07-11.11-3.22c-2.87-2.14-5.1-4.87-6.67-8.19
				c-1.58-3.32-2.61-6.96-3.1-10.92c-0.48-3.96-0.61-7.77-0.36-11.41c0.81-9.79,3.32-17.13,7.53-22.03
				c4.2-4.9,10.31-7.34,18.33-7.34c2.35,0,4.53,0.12,6.55,0.36c2.02,0.24,3.72,0.57,5.1,0.97l11.53-1.7L419.01,161.26z
				 M391.81,164.9c2.35,0,4.73-0.59,7.16-1.76c2.43-1.17,4.21-2.73,5.34-4.67l-0.49-27.31c-0.73-0.16-1.7-0.26-2.91-0.3
				c-1.21-0.04-2.19-0.06-2.92-0.06c-4.13,0-7.22,1.68-9.28,5.04c-2.07,3.36-3.34,8.07-3.83,14.14c-0.16,1.46-0.18,3.06-0.06,4.79
				c0.12,1.74,0.44,3.36,0.97,4.85c0.52,1.5,1.25,2.75,2.19,3.76C388.92,164.4,390.2,164.9,391.81,164.9z"/>
		</g>
	</g>
	<g>
		<path class="st3" d="M296.11,144.57c2.31-0.28,4.43-0.75,6.37-1.4c1.94-0.65,3.54-1.5,4.79-2.55c0.46-0.38,0.83-0.81,1.12-1.29
			c-5.82,0.15-11.68,0.28-17.56,0.4c-0.62,1.65-1.07,3.52-1.34,5.62C291.59,145.12,293.8,144.85,296.11,144.57z"/>
		<path class="st3" d="M110.21,166.24c4.13,0,7.2-1.72,9.23-5.16c2.02-3.44,3.28-8.19,3.76-14.26c0.08-1.46,0.06-3.08-0.06-4.85
			c-0.05-0.81-0.15-1.58-0.28-2.34c-6.67-0.15-13.31-0.31-19.92-0.49l0.23,26.38C105.6,165.99,107.95,166.24,110.21,166.24z"/>
		<path class="st3" d="M202.22,148.27c0,2.51,0.14,4.84,0.42,6.98c0.28,2.14,0.81,4.01,1.58,5.58c0.77,1.58,1.86,2.83,3.28,3.76
			c1.41,0.93,3.26,1.4,5.52,1.4c2.26,0,4.08-0.46,5.46-1.4c1.37-0.93,2.47-2.18,3.28-3.76c0.81-1.58,1.35-3.44,1.64-5.58
			c0.28-2.14,0.43-4.47,0.43-6.98c0-2.51-0.14-4.83-0.43-6.98c-0.03-0.26-0.08-0.5-0.13-0.75c-4.58,0.02-9.17,0.02-13.77,0.02
			c-2.25,0-4.49,0-6.74-0.01c-0.04,0.25-0.09,0.48-0.12,0.73C202.36,143.44,202.22,145.77,202.22,148.27z"/>
		<path class="st3" d="M384.84,154.77c0.12,1.74,0.44,3.36,0.97,4.86c0.52,1.5,1.25,2.75,2.19,3.76c0.93,1.01,2.2,1.52,3.82,1.52
			c2.35,0,4.73-0.59,7.16-1.76c2.43-1.17,4.21-2.73,5.34-4.67l-0.41-22.79c-5.15,0.27-10.32,0.53-15.53,0.77
			c-1.86,3.31-3.03,7.81-3.48,13.52C384.73,151.43,384.71,153.03,384.84,154.77z"/>
		<path class="st3" d="M37.93,161.26c2.06-1.62,3.09-4.17,3.09-7.65c0-3.4-1.05-5.89-3.16-7.47c-2.11-1.58-4.53-2.37-7.28-2.37
			H16.51v19.91h14.08C33.42,163.69,35.87,162.88,37.93,161.26z"/>
	</g>
	<g>
		<path class="st3" d="M112.9,44.14c-3.28-0.22-6.51-0.46-9.71-0.7l4.91,19.31L112.9,44.14z"/>
	</g>
</g>
</svg>
